<svg xmlns="http://www.w3.org/2000/svg" version="1.1" xmlns:xlink="http://www.w3.org/1999/xlink" width="200" height="200"><svg xmlns="http://www.w3.org/2000/svg" version="1.1" xmlns:xlink="http://www.w3.org/1999/xlink" viewBox="0 0 200 200"><rect width="200" height="200" fill="url('#gradient')"></rect><defs><linearGradient id="SvgjsLinearGradient1001" gradientTransform="rotate(45 0.5 0.5)"><stop offset="0%" stop-color="#000000"></stop><stop offset="100%" stop-color="#211c36"></stop></linearGradient></defs><g><g fill="#ffffff" transform="matrix(5.886937080804855,0,0,5.886937080804855,6.0425702327168125,141.8603787792258)" stroke="#a8dc9f" stroke-width="0.2"><path d="M9.17-4.81L12.58-4.81Q12.51-3.33 11.78-2.19Q11.04-1.05 9.72-0.43Q8.40 0.20 6.70 0.20L6.70 0.20Q3.90 0.20 2.29-1.63Q0.67-3.46 0.67-6.79L0.67-6.79L0.67-7.49Q0.67-9.58 1.40-11.15Q2.13-12.71 3.50-13.57Q4.86-14.42 6.66-14.42L6.66-14.42Q9.25-14.42 10.82-13.06Q12.39-11.70 12.61-9.31L12.61-9.31L9.19-9.31Q9.15-10.61 8.54-11.17Q7.92-11.74 6.66-11.74L6.66-11.74Q5.38-11.74 4.79-10.78Q4.19-9.82 4.16-7.72L4.16-7.72L4.16-6.72Q4.16-4.44 4.73-3.47Q5.30-2.49 6.70-2.49L6.70-2.49Q7.88-2.49 8.51-3.05Q9.13-3.60 9.17-4.81L9.17-4.81ZM17.85-14.22L17.85 0L14.43 0L14.43-14.22L17.85-14.22ZM26.01 0L20.23 0L20.23-14.22L25.34-14.22Q28.09-14.22 29.52-13.21Q30.95-12.21 30.95-10.29L30.95-10.29Q30.95-9.19 30.44-8.41Q29.93-7.63 28.95-7.26L28.95-7.26Q30.06-6.96 30.65-6.16Q31.25-5.36 31.25-4.21L31.25-4.21Q31.25-2.12 29.93-1.07Q28.60-0.02 26.01 0L26.01 0ZM26.06-6.04L23.66-6.04L23.66-2.64L25.91-2.64Q26.84-2.64 27.33-3.06Q27.83-3.49 27.83-4.26L27.83-4.26Q27.83-6.04 26.06-6.04L26.06-6.04ZM23.66-11.57L23.66-8.29L25.45-8.29Q26.57-8.30 27.05-8.70Q27.53-9.10 27.53-9.88L27.53-9.88Q27.53-10.78 27.01-11.18Q26.49-11.57 25.34-11.57L25.34-11.57L23.66-11.57Z"></path></g></g></svg><style>@media (prefers-color-scheme: light) { :root { filter: none; } }
@media (prefers-color-scheme: dark) { :root { filter: none; } }
</style></svg>